# File produced by Open Asset Import Library (http://www.assimp.sf.net)
# (assimp v3.1.59755898)

mtllib Finished%20bushN2.mtl

# vertex positions
v 0.067649 0.398154 -0.706963
v -0.062881 0.333782 -0.749204
v -0.222988 0.552762 -0.481974
v 0.084928 -0.088796 0.409475
v 0.114498 -0.103618 0.724465
v -0.252839 -0.080614 0.438996
v -0.169167 0.105967 -0.512672
v 0.197971 -0.053843 -0.362225
v -0.334878 -0.056374 -0.185991
v -0.281079 0.749829 0.166208
v 0.091324 0.680577 -0.333103
v -0.220411 0.731019 -0.160157
v 0.002310 0.214248 -0.754146
v 0.251293 -0.005196 -0.026560
v -0.042080 0.012832 -0.125116
v -0.483453 0.532676 0.462663
v 0.215816 0.400610 0.647372
v 0.014145 0.610078 0.525711
v -0.341913 -0.031564 0.266541
v -0.530616 0.527855 -0.356661
v 0.264038 0.604787 -0.360731
v 0.438693 0.230699 0.698705
v -0.009560 0.281936 0.932040
v -0.348276 0.136933 -0.577046
v 0.147890 0.774127 0.195925
v 0.316175 -0.052100 0.319159
v 0.429841 0.175532 -0.541198
v 0.061609 0.020593 0.939024
v -0.313648 -0.079480 0.598725
v -0.086500 0.479610 0.652874
v -0.422446 0.064475 0.725935
v 0.405279 -0.036574 -0.153823
v 0.332640 0.707446 0.255189
v 0.554250 0.548228 -0.249452
v 0.648392 0.383369 0.403371
v -0.527480 0.566971 0.332414
v -0.501670 0.238469 0.501256
v -0.589927 0.127806 -0.195974
v 0.451937 0.030556 0.542729
v -0.471568 0.148189 0.463022
v -0.607157 0.098392 0.201801
v 0.562052 0.199822 0.379911
v 0.476620 -0.017550 0.183981
v 0.639936 0.257814 -0.231549
v -0.569982 0.387297 0.391205
v 0.701903 0.185424 0.039754
v 0.607192 0.156277 0.261178
v -0.617755 0.422050 0.056065
v 0.614578 0.499339 0.166176
v -0.733404 0.287190 0.308758

# UV coordinates
vt 0.971113 0.342603
vt 0.913719 0.342603
vt 0.930269 0.210671
vt 0.922406 0.140885
vt 0.835141 0.216391
vt 0.835553 0.054032
vt 0.631357 0.181340
vt 0.504965 0.271704
vt 0.527654 0.077637
vt 0.698162 0.044289
vt 0.698162 0.260486
vt 0.642009 0.147039
vt 0.725700 0.440756
vt 0.631981 0.534475
vt 0.605396 0.360591
vt 0.534436 0.705780
vt 0.686172 0.800548
vt 0.534436 0.822497
vt 0.822378 0.034342
vt 0.933758 0.001000
vt 0.908843 0.120808
vt 0.257169 0.419701
vt 0.001000 0.419701
vt 0.091025 0.352396
vt 0.366652 0.885920
vt 0.416045 0.938697
vt 0.259008 0.938697
vt 0.363002 0.560051
vt 0.139890 0.560051
vt 0.264290 0.476465
vt 0.270169 0.858467
vt 0.270169 0.930284
vt 0.114303 0.907988
vt 0.833168 0.226057
vt 0.753050 0.159938
vt 0.833168 0.049079
vt 0.625665 0.370810
vt 0.743825 0.291862
vt 0.743825 0.446866
vt 0.246077 0.741382
vt 0.039412 0.741382
vt 0.067403 0.676244
vt 0.357745 0.551956
vt 0.292781 0.488742
vt 0.451711 0.488742
vt 0.912663 0.631902
vt 0.837963 0.642673
vt 0.837963 0.482103
vt 0.795225 0.289889
vt 0.692868 0.289889
vt 0.737332 0.122067
vt 0.976912 0.610547
vt 0.904971 0.610547
vt 0.963392 0.488923
vt 0.001000 0.299963
vt 0.115132 0.171513
vt 0.231838 0.288219
vt 0.933025 0.389390
vt 0.933025 0.546062
vt 0.869059 0.538530
vt 0.425077 0.779918
vt 0.269168 0.705310
vt 0.425077 0.664731
vt 0.152673 0.594866
vt 0.048723 0.562024
vt 0.303188 0.562024
vt 0.648820 0.352049
vt 0.552392 0.318065
vt 0.648820 0.166758
vt 0.579507 0.730724
vt 0.683448 0.714773
vt 0.683448 0.789919
vt 0.532463 0.741432
vt 0.532463 0.836834
vt 0.371439 0.803236
vt 0.650104 0.602095
vt 0.531324 0.656933
vt 0.427050 0.602095
vt 0.791816 0.373545
vt 0.791816 0.558841
vt 0.711732 0.535962
vt 0.603423 0.563034
vt 0.535542 0.529187
vt 0.603423 0.338718
vt 0.798765 0.821459
vt 0.893399 0.916093
vt 0.739059 0.912726
vt 0.930735 0.388158
vt 0.880562 0.440787
vt 0.880562 0.273002
vt 0.185885 0.238319
vt 0.340858 0.146073
vt 0.340858 0.325712
vt 0.001000 0.144900
vt 0.062542 0.001000
vt 0.211577 0.189589
vt 0.370385 0.001000
vt 0.518052 0.001000
vt 0.430920 0.169089
vt 0.377103 0.353761
vt 0.466076 0.486769
vt 0.280763 0.486769
vt 0.429207 0.426731
vt 0.342831 0.219661
vt 0.461378 0.219661
vt 0.514324 0.496752
vt 0.430895 0.429254
vt 0.514324 0.268396
vt 0.144919 0.829569
vt 0.001000 0.829569
vt 0.001515 0.714539
vt 0.382145 0.041105
vt 0.416418 0.217688
vt 0.255020 0.056289
vt 0.111593 0.860307
vt 0.234676 0.760008
vt 0.256194 0.860307
vt 0.996070 0.852205
vt 0.923739 0.831203
vt 0.996070 0.747148
vt 0.710141 0.460261
vt 0.709265 0.629453
vt 0.598010 0.572392
vt 0.132018 0.805503
vt 0.041872 0.743355
vt 0.237359 0.743355
vt 0.921766 0.858542
vt 0.827941 0.846689
vt 0.921766 0.714049
vt 0.275222 0.644593
vt 0.420526 0.644593
vt 0.305222 0.686629
vt 0.937249 0.955997
vt 0.863413 0.882161
vt 0.964971 0.845721
vt 0.248050 0.811175
vt 0.248050 0.698031
vt 0.404976 0.773870
vt 0.802890 0.439300
vt 0.878589 0.342114
vt 0.878589 0.509737
vt 0.170159 0.505275
vt 0.095217 0.421674
vt 0.324511 0.421674
vt 0.838399 0.644646
vt 0.838399 0.827142
vt 0.777065 0.680539
vt 0.252602 0.415078
vt 0.196070 0.363753
vt 0.363813 0.363752
vt 0.990824 0.117456
vt 0.974487 0.225225
vt 0.911923 0.117456
vt 0.686380 0.944683
vt 0.536839 0.944683
vt 0.567205 0.874107
vt 0.049677 0.938635
vt 0.003019 0.831542
vt 0.129620 0.831542
vt 0.674844 0.614784
vt 0.726530 0.712800
vt 0.550808 0.712800
vt 0.005664 0.553655
vt 0.005664 0.421674
vt 0.030018 0.448865
vt 0.758173 0.551766
vt 0.758173 0.761745
vt 0.698254 0.653463
vt 0.640036 0.175472
vt 0.504965 0.053369
vt 0.640036 0.018883
vt 0.044084 0.563049
vt 0.206373 0.620792
vt 0.044084 0.682370
vt 0.835990 0.642928
vt 0.760146 0.630095
vt 0.835990 0.473908
vt 0.003457 0.301911
vt 0.140810 0.312422
vt 0.003457 0.413268
vt 0.335480 0.579976
vt 0.286791 0.624935
vt 0.231932 0.579976
vt 0.357444 0.787611
vt 0.427883 0.890723
vt 0.272142 0.872914
vt 0.097987 0.041383
vt 0.253047 0.001000
vt 0.253047 0.195194
vt 0.932330 0.344576
vt 0.999000 0.401910
vt 0.939601 0.461309
vt 0.903142 0.945497
vt 0.792436 0.988962
vt 0.792436 0.915907
vt 0.172223 0.001000
vt 0.098728 0.036982
vt 0.066074 0.001000
vt 0.429856 0.925726
vt 0.429856 0.817809
vt 0.560315 0.883562
vt 0.342831 0.162843
vt 0.392358 0.212228
vt 0.342831 0.217688
vt 0.852134 0.371572
vt 0.758023 0.371572
vt 0.843131 0.213157
vt 0.688145 0.716460
vt 0.830715 0.815462
vt 0.688145 0.832374
vt 0.425077 0.642656
vt 0.272735 0.640554
vt 0.425077 0.510856
vt 0.914665 0.317365
vt 0.845119 0.211437
vt 0.914665 0.152284
vt 0.048057 0.020483
vt 0.001000 0.121155
vt 0.001000 0.001000
vt 0.176125 0.228559
vt 0.144327 0.191562
vt 0.238746 0.191562
vt 0.367893 0.361779
vt 0.121032 0.361779
vt 0.251964 0.278669
vt 0.093880 0.887776
vt 0.157106 0.963800
vt 0.033113 0.963800
vt 0.249352 0.933706
vt 0.305124 0.984258
vt 0.198862 0.984258
vt 0.649741 0.808076
vt 0.754729 0.883784
vt 0.588850 0.883784
vt 0.964996 0.704518
vt 0.849644 0.660995
vt 0.964996 0.612861
vt 0.269931 0.005073
vt 0.371378 0.040182
vt 0.255020 0.040182
vt 0.427050 0.735214
vt 0.427050 0.605106
vt 0.573005 0.691727
vt 0.790463 0.968075
vt 0.674034 0.976595
vt 0.714458 0.892071
vt 0.475383 0.468817
vt 0.597932 0.600122
vt 0.427050 0.600122
vt 0.001000 0.271426
vt 0.001000 0.147291
vt 0.081412 0.194646
vt 0.241399 0.594840
vt 0.302540 0.694137
vt 0.123869 0.694137
vt 0.495373 0.907162
vt 0.565909 0.977699
vt 0.441695 0.985521
vt 0.192410 0.986770
vt 0.117638 0.911998
vt 0.249521 0.929586
vt 0.768577 0.133750
vt 0.669209 0.001000
vt 0.806751 0.001000
vt 0.516297 0.267933
vt 0.575464 0.409659
vt 0.516297 0.508567
vt 0.068834 0.421674
vt 0.178183 0.531023
vt 0.001000 0.570155
vt 0.267519 0.075154
vt 0.333178 0.140813
vt 0.255020 0.194020
vt 0.840373 0.823074
vt 0.840372 0.653580
vt 0.903621 0.734938
vt 0.519584 0.264636
vt 0.572986 0.264636
vt 0.543153 0.325563
vt 0.502992 0.282982
vt 0.437523 0.175146
vt 0.502992 0.035833
vt 0.984652 0.737132
vt 0.923739 0.826937
vt 0.923739 0.715896
vt 0.912333 0.115483
vt 0.964369 0.008793
vt 0.990542 0.115483

# vertex normals
vn -0.138225 0.723849 -0.675970
vn -0.028068 -0.998621 -0.044358
vn -0.162675 -0.848225 -0.504035
vn 0.143206 0.989226 -0.030393
vn -0.040214 0.798496 -0.600656
vn -0.165720 -0.850559 -0.499085
vn -0.114073 -0.980468 0.160216
vn -0.172698 0.365070 0.914822
vn -0.045403 -0.966786 -0.251522
vn -0.178018 0.810936 -0.557398
vn -0.178018 0.810936 -0.557397
vn 0.241414 0.766903 -0.594625
vn 0.392419 0.696309 0.600967
vn -0.648923 0.349980 -0.675583
vn 0.366734 0.908599 -0.199885
vn 0.366734 0.908599 -0.199884
vn 0.133889 -0.989231 -0.059120
vn 0.449768 0.068673 -0.890501
vn 0.469966 0.151221 0.869634
vn 0.110424 -0.740179 -0.663282
vn -0.060463 -0.975796 -0.210156
vn -0.052506 -0.998537 -0.012904
vn 0.218448 -0.974194 0.056805
vn 0.241249 0.940007 -0.241217
vn -0.407965 -0.086810 0.908861
vn -0.073155 -0.985294 0.154415
vn 0.641968 -0.584273 0.496491
vn 0.641968 -0.584273 0.496490
vn -0.212240 0.916591 -0.338845
vn -0.321583 -0.751770 0.575696
vn 0.372425 0.919397 -0.126527
vn 0.468830 -0.786937 -0.401159
vn -0.262923 -0.961403 -0.081091
vn 0.385919 0.667282 0.637025
vn -0.526855 0.848721 -0.045781
vn -0.194268 0.849857 0.489902
vn 0.594479 0.495782 -0.633084
vn 0.269838 0.935457 -0.228273
vn -0.585273 0.528062 0.615310
vn -0.465460 -0.675552 -0.571818
vn -0.557488 0.597292 0.576584
vn 0.408537 -0.908509 0.087804
vn -0.703842 -0.690406 0.167173
vn -0.379898 0.313444 -0.870305
vn 0.133796 -0.910415 0.391462
vn 0.556289 -0.487596 0.672899
vn 0.556289 -0.487596 0.672898
vn -0.390379 0.849223 0.355562
vn -0.480139 -0.781595 0.398216
vn -0.447841 -0.893126 0.042002
vn 0.578280 0.802664 0.146024
vn -0.018436 -0.991791 -0.126537
vn -0.131842 -0.985456 -0.107207
vn -0.131842 -0.985456 -0.107207
vn 0.217732 -0.975967 0.008981
vn 0.559599 -0.665336 0.494143
vn 0.152994 0.858659 0.489181
vn 0.224648 0.823389 0.521118
vn -0.411981 0.143543 0.899815
vn -0.858074 -0.414496 0.303153
vn -0.858075 -0.414495 0.303153
vn -0.656982 0.735734 -0.164532
vn -0.080201 0.905046 0.417684
vn 0.394031 0.481369 -0.782958
vn 0.455661 -0.320485 0.830459
vn 0.786489 0.195946 -0.585696
vn -0.752975 0.131209 0.644836
vn -0.752974 0.131209 0.644836
vn 0.633959 -0.768038 -0.090632
vn -0.044035 0.984564 -0.169397
vn 0.727951 -0.647252 0.226168
vn -0.946671 0.277507 0.163721
vn 0.595357 -0.654299 0.466307
vn 0.694049 -0.640181 -0.329339
vn 0.229234 0.164686 -0.959338
vn -0.183599 -0.869675 0.458210
vn -0.581136 -0.809353 -0.085021
vn 0.595497 0.803317 0.008058
vn 0.096874 -0.983678 -0.151636
vn -0.684354 -0.346708 -0.641446
vn 0.782600 -0.426135 0.453813
vn -0.990487 0.133584 -0.033026
vn 0.982316 -0.069314 -0.173926
vn -0.570560 0.302650 0.763455
vn 0.625513 0.732406 0.268916
vn 0.911134 0.091648 0.401790
vn 0.911134 0.091648 0.401789
vn -0.619899 -0.472128 0.626754
vn 0.947101 0.304407 -0.101664
vn -0.609684 -0.658033 0.441903
vn 0.245870 -0.738454 -0.627880
vn -0.819230 -0.257540 -0.512381
vn -0.819230 -0.257540 -0.512382
vn 0.332489 0.692173 0.640584
vn 0.724965 -0.660275 -0.196121
vn -0.838986 -0.531668 -0.115895
vn 0.703188 -0.641476 -0.306652
vn -0.823206 0.567030 -0.028442
vn -0.840084 -0.090297 -0.534888
vn 0.900114 -0.229180 0.370502
vn 0.900114 -0.229179 0.370502
vn 0.951404 0.271784 -0.144787
vn -0.865098 0.328636 0.378952
vn -0.961153 -0.138880 -0.238532
vn -0.710612 -0.651401 -0.265908
vn -0.574393 0.801774 0.165018

# Mesh
g BushN2:SculptMesh_1_geom
usemtl BushN2________0
f 1/1/1 2/2/1 3/3/1
f 4/4/2 5/5/2 6/6/2
f 7/7/3 8/8/3 9/9/3
f 10/10/4 11/11/4 12/12/4
f 3/13/5 11/14/5 1/15/5
f 13/16/6 8/17/6 7/18/6
f 14/19/7 15/20/7 8/21/7
f 16/22/8 17/23/8 18/24/8
f 6/25/9 19/26/9 4/27/9
f 11/28/10 20/29/11 12/30/11
f 11/31/12 21/32/12 1/33/12
f 22/34/13 17/35/13 23/36/13
f 2/37/14 24/38/14 3/39/14
f 25/40/15 21/41/15 11/42/16
f 4/43/17 26/44/17 5/45/17
f 13/46/18 1/47/18 27/48/18
f 23/49/19 28/50/19 22/51/19
f 7/52/20 24/53/20 2/54/20
f 14/55/21 4/56/21 19/57/21
f 5/58/22 29/59/22 6/60/22
f 15/61/23 19/62/23 9/63/23
f 30/64/24 17/65/24 16/66/24
f 28/67/25 23/68/25 31/69/25
f 8/70/26 32/71/26 14/72/26
f 28/73/27 5/74/27 22/75/28
f 11/76/29 3/77/29 20/78/29
f 28/79/30 31/80/30 29/81/30
f 25/82/31 33/83/31 34/84/31
f 8/85/32 27/86/32 32/87/32
f 14/88/33 32/89/33 26/90/33
f 33/91/34 17/92/34 35/93/34
f 12/94/35 20/95/35 36/96/35
f 10/97/36 16/98/36 18/99/36
f 1/100/37 21/101/37 27/102/37
f 25/103/38 34/104/38 21/105/38
f 37/106/39 31/107/39 23/108/39
f 7/109/40 9/110/40 38/111/40
f 30/112/41 37/113/41 23/114/41
f 5/115/42 26/116/42 39/117/42
f 19/118/43 6/119/43 40/120/43
f 24/121/44 20/122/44 3/123/44
f 15/124/45 9/125/45 8/126/45
f 39/127/46 22/128/47 5/129/46
f 16/130/48 10/131/48 36/132/48
f 19/133/49 40/134/49 41/135/49
f 19/136/50 41/137/50 9/138/50
f 22/139/51 42/140/51 17/141/51
f 15/142/52 14/143/52 19/144/52
f 7/145/53 38/146/54 24/147/54
f 43/148/55 26/149/55 32/150/55
f 43/151/56 42/152/56 26/153/56
f 18/154/57 33/155/57 25/156/57
f 17/157/58 30/158/58 23/159/58
f 16/160/59 37/161/59 30/162/59
f 29/163/60 37/164/61 40/165/61
f 12/166/62 36/167/62 10/168/62
f 10/169/63 18/170/63 25/171/63
f 34/172/64 27/173/64 21/174/64
f 42/175/65 35/176/65 17/177/65
f 44/178/66 27/179/66 34/180/66
f 16/181/67 45/182/68 37/183/68
f 43/184/69 32/185/69 46/186/69
f 10/187/70 25/188/70 11/189/70
f 46/190/71 47/191/71 43/192/71
f 48/193/72 45/194/72 36/195/72
f 43/196/73 47/197/73 42/198/73
f 44/199/74 46/200/74 32/201/74
f 1/202/75 13/203/75 2/204/75
f 5/205/76 28/206/76 29/207/76
f 9/208/77 41/209/77 38/210/77
f 49/211/78 34/212/78 33/213/78
f 14/214/79 26/215/79 4/216/79
f 13/217/80 7/218/80 2/219/80
f 42/220/81 47/221/81 35/222/81
f 41/223/82 20/224/82 38/225/82
f 35/226/83 47/227/83 49/228/83
f 45/229/84 50/230/84 37/231/84
f 49/232/85 33/233/85 35/234/85
f 46/235/86 49/236/87 47/237/86
f 37/238/88 50/239/88 40/240/88
f 49/241/89 46/242/89 34/243/89
f 40/244/90 50/245/90 41/246/90
f 8/247/91 13/248/91 27/249/91
f 48/250/92 41/251/93 50/252/93
f 18/253/94 17/254/94 33/255/94
f 39/256/95 26/257/95 42/258/95
f 31/259/96 37/260/96 29/261/96
f 32/262/97 27/263/97 44/264/97
f 20/265/98 48/266/98 36/267/98
f 38/268/99 20/269/99 24/270/99
f 22/271/100 39/272/100 42/273/101
f 34/274/102 46/275/102 44/276/102
f 16/277/103 36/278/103 45/279/103
f 41/280/104 48/281/104 20/282/104
f 29/283/105 40/284/105 6/285/105
f 45/286/106 48/287/106 50/288/106
