# File produced by Open Asset Import Library (http://www.assimp.sf.net)
# (assimp v3.1.59755898)

mtllib finished%20bushN3.mtl

# vertex positions
v 0.117105 0.419769 -0.559898
v -0.055277 0.393538 -0.552587
v -0.135272 0.579907 -0.366577
v 0.179029 -0.068939 -0.315823
v -0.137982 -0.070404 -0.271045
v 0.006675 0.122369 -0.598326
v -0.043851 -0.044114 0.178234
v 0.081840 -0.114891 0.303951
v -0.204400 -0.098466 0.351815
v 0.128940 0.293793 -0.492482
v -0.061364 -0.027338 -0.114011
v 0.275962 -0.062384 0.284880
v -0.018828 0.183488 0.748205
v 0.165262 0.267253 0.524678
v -0.000129 0.412117 0.462036
v -0.257115 -0.098262 0.475093
v -0.214385 0.259726 -0.457440
v -0.118158 0.581039 0.128015
v -0.305191 0.564737 -0.233335
v -0.391571 0.385503 0.370613
v 0.012625 0.680252 -0.091017
v 0.241936 0.688036 -0.148180
v 0.102826 0.666576 -0.371950
v 0.384860 0.385463 0.328623
v 0.049871 -0.019037 0.751735
v 0.031681 -0.109725 0.612674
v 0.347801 0.103251 -0.433451
v 0.304015 -0.022145 0.621284
v 0.353001 0.168939 0.528827
v 0.126851 0.572686 0.208641
v 0.333487 -0.061237 -0.129175
v -0.364860 0.221316 0.437588
v 0.400650 0.530659 -0.004987
v 0.403155 0.541779 -0.328532
v -0.281571 -0.091763 0.052138
v -0.390821 0.017292 -0.171588
v -0.424396 0.419769 -0.295242
v 0.333911 0.191000 0.351533
v 0.365634 -0.011351 0.434741
v 0.429168 0.419760 0.051895
v -0.276606 0.068982 -0.456958
v -0.396600 0.507037 -0.057511
v 0.439154 0.290229 -0.266912
v 0.491469 0.088358 0.208837
v -0.593892 0.134498 0.270822
v -0.276854 -0.059731 0.213162
v -0.377684 0.080153 0.370785
v -0.427264 0.374015 -0.043190
v -0.427171 0.412143 0.265930
v 0.384039 0.080437 0.341971
v 0.443423 0.107112 -0.295034
v 0.574108 0.176971 -0.034577
v -0.531558 0.156054 -0.116530
v 0.562971 0.241346 0.090171
v 0.544219 0.258555 0.281005

# UV coordinates
vt 0.919256 0.193155
vt 0.858602 0.144949
vt 0.919256 0.042134
vt 0.361790 0.241655
vt 0.507479 0.241655
vt 0.425887 0.395839
vt 0.900451 0.887861
vt 0.971769 0.839453
vt 0.975621 0.963030
vt 0.144119 0.978129
vt 0.051464 0.980867
vt 0.105658 0.926674
vt 0.440538 0.017273
vt 0.440538 0.239659
vt 0.361790 0.194734
vt 0.726067 0.781459
vt 0.646729 0.886672
vt 0.573967 0.813910
vt 0.886646 0.404412
vt 0.926387 0.286083
vt 0.926387 0.447397
vt 0.784802 0.008821
vt 0.891268 0.008821
vt 0.861304 0.134987
vt 0.508148 0.246160
vt 0.508148 0.456092
vt 0.427554 0.402613
vt 0.022196 0.248037
vt 0.200013 0.248037
vt 0.111025 0.402456
vt 0.125706 0.904257
vt 0.177422 0.816002
vt 0.260364 0.898943
vt 0.625077 0.512608
vt 0.625077 0.339385
vt 0.706444 0.400788
vt 0.060403 0.787797
vt 0.238954 0.787797
vt 0.111482 0.840385
vt 0.163842 0.629986
vt 0.001000 0.629986
vt 0.046916 0.515361
vt 0.531210 0.083067
vt 0.623872 0.046081
vt 0.623872 0.229524
vt 0.868323 0.720576
vt 0.892058 0.862513
vt 0.786626 0.802273
vt 0.177048 0.186465
vt 0.001000 0.051101
vt 0.171286 0.001000
vt 0.744196 0.692799
vt 0.663399 0.676459
vt 0.744196 0.520747
vt 0.819747 0.718579
vt 0.863138 0.589049
vt 0.902572 0.718579
vt 0.837289 0.350267
vt 0.901920 0.426880
vt 0.837289 0.497574
vt 0.543148 0.687669
vt 0.622343 0.541022
vt 0.664021 0.687669
vt 0.158363 0.647627
vt 0.218550 0.521677
vt 0.321627 0.624754
vt 0.751958 0.779463
vt 0.601428 0.779463
vt 0.672470 0.680694
vt 0.279416 0.749319
vt 0.354516 0.849821
vt 0.215235 0.849821
vt 0.399918 0.683009
vt 0.277556 0.683009
vt 0.398829 0.534911
vt 0.746193 0.691717
vt 0.746193 0.548344
vt 0.801142 0.615057
vt 0.692058 0.425299
vt 0.692058 0.615384
vt 0.624963 0.541218
vt 0.588987 0.975619
vt 0.666333 0.865319
vt 0.679666 0.975619
vt 0.992886 0.514135
vt 0.902478 0.455940
vt 0.992886 0.433092
vt 0.786602 0.798304
vt 0.705270 0.716973
vt 0.824915 0.652134
vt 0.835292 0.513751
vt 0.768533 0.447359
vt 0.835292 0.342648
vt 0.056113 0.782582
vt 0.008835 0.708018
vt 0.177745 0.708018
vt 0.342835 0.163197
vt 0.263533 0.257567
vt 0.263533 0.005590
vt 0.636088 0.179590
vt 0.625869 0.051953
vt 0.722430 0.148513
vt 0.835291 0.664221
vt 0.746953 0.515748
vt 0.839877 0.515748
vt 0.782805 0.001000
vt 0.782805 0.193887
vt 0.730693 0.037508
vt 0.685385 0.850029
vt 0.759859 0.775555
vt 0.844587 0.873774
vt 0.694054 0.423894
vt 0.756896 0.492101
vt 0.694054 0.606049
vt 0.962779 0.139281
vt 0.962779 0.261458
vt 0.889793 0.237478
vt 0.528643 0.772579
vt 0.617746 0.861683
vt 0.476469 0.877477
vt 0.619743 0.922043
vt 0.470129 0.915769
vt 0.619743 0.863680
vt 0.130662 0.877624
vt 0.001000 0.877624
vt 0.041951 0.769791
vt 0.623080 0.539025
vt 0.506693 0.460545
vt 0.623080 0.377723
vt 0.158381 0.365045
vt 0.222875 0.195029
vt 0.324728 0.365045
vt 0.261536 0.001000
vt 0.261536 0.252789
vt 0.176881 0.114815
vt 0.841135 0.107015
vt 0.886428 0.223922
vt 0.767028 0.223922
vt 0.550597 0.336650
vt 0.510145 0.454672
vt 0.510145 0.265384
vt 0.563501 0.001000
vt 0.493311 0.164912
vt 0.437690 0.001000
vt 0.888270 0.391633
vt 0.811711 0.315073
vt 0.907995 0.246111
vt 0.230928 0.746261
vt 0.148714 0.664047
vt 0.311515 0.628447
vt 0.193628 0.469258
vt 0.134581 0.367042
vt 0.327810 0.367042
vt 0.452400 0.735434
vt 0.511082 0.801876
vt 0.335673 0.801876
vt 0.426009 0.747322
vt 0.237441 0.747322
vt 0.276191 0.685005
vt 0.483375 0.803872
vt 0.406446 0.871626
vt 0.323669 0.803872
vt 0.401529 0.628546
vt 0.401529 0.530974
vt 0.581208 0.606497
vt 0.680592 0.324869
vt 0.809714 0.225919
vt 0.809714 0.344939
vt 0.887081 0.639659
vt 0.837289 0.500979
vt 0.887081 0.465845
vt 0.350684 0.995440
vt 0.260184 0.995440
vt 0.309770 0.916506
vt 0.055355 0.519680
vt 0.145948 0.441212
vt 0.265266 0.519680
vt 0.442534 0.063762
vt 0.489459 0.218804
vt 0.442535 0.239659
vt 0.001000 0.246041
vt 0.064268 0.103280
vt 0.200770 0.246041
vt 0.966758 0.778078
vt 0.923150 0.700822
vt 0.978276 0.700822
vt 0.002182 0.277737
vt 0.082117 0.357672
vt 0.001000 0.352029
vt 0.359793 0.407713
vt 0.265433 0.260739
vt 0.359793 0.192737
vt 0.293777 0.489485
vt 0.406853 0.356853
vt 0.458800 0.489485
vt 0.759177 0.488443
vt 0.677005 0.343246
vt 0.783980 0.343246
vt 0.690376 0.987686
vt 0.767030 0.917909
vt 0.791935 0.987687
vt 0.811747 0.233938
vt 0.893913 0.227252
vt 0.811711 0.309454
vt 0.047133 0.034917
vt 0.001000 0.010638
vt 0.129744 0.010638
vt 0.553491 0.423826
vt 0.553491 0.209037
vt 0.614365 0.323181
vt 0.349018 0.972947
vt 0.311208 0.913633
vt 0.437088 0.913633
vt 0.252847 0.785800
vt 0.085999 0.785801
vt 0.185795 0.705121
vt 0.481713 0.178191
vt 0.551494 0.120280
vt 0.551494 0.332693
vt 0.599432 0.700872
vt 0.599432 0.804098
vt 0.453932 0.733211
vt 0.678248 0.849518
vt 0.794126 0.906036
vt 0.678248 0.945374
vt 0.869559 0.852795
vt 0.919591 0.916967
vt 0.778868 0.943486
vt 0.266484 0.953212
vt 0.128983 0.953212
vt 0.261320 0.900981
vt 0.976695 0.100331
vt 0.891138 0.004441
vt 0.976695 0.001000
vt 0.385556 0.708451
vt 0.491968 0.619690
vt 0.554354 0.708451
vt 0.001000 0.221419
vt 0.001000 0.054633
vt 0.047903 0.108819
vt 0.720808 0.142138
vt 0.600884 0.018280
vt 0.720808 0.001000
vt 0.909813 0.575634
vt 0.886188 0.448269
vt 0.976255 0.509192
vt 0.360644 0.845961
vt 0.464645 0.911636
vt 0.314316 0.911636
vt 0.921253 0.075022
vt 0.969434 0.114770
vt 0.921253 0.190468
vt 0.669933 0.367244
vt 0.568543 0.231520
vt 0.696430 0.231520
vt 0.428137 0.500372
vt 0.326637 0.601873
vt 0.246711 0.488543
vt 0.967039 0.993650
vt 0.859698 0.980853
vt 0.924574 0.915977
vt 0.474427 0.895647
vt 0.419158 0.870798
vt 0.474607 0.815350
vt 0.940444 0.551922
vt 0.940444 0.698826
vt 0.884300 0.650003
vt 0.759349 0.131489
vt 0.759349 0.250795
vt 0.625869 0.204190
vt 0.180215 0.706021
vt 0.001000 0.706021
vt 0.054679 0.631983
vt 0.241171 0.851818
vt 0.346190 0.851818
vt 0.286504 0.948368
vt 0.929544 0.864762
vt 0.871298 0.724428
vt 0.929544 0.717684
vt 0.361790 0.256496
vt 0.391295 0.319427
vt 0.361790 0.369368
vt 0.217555 0.481290
vt 0.330951 0.367894
vt 0.330956 0.429448
vt 0.784802 0.190738
vt 0.784802 0.046843
vt 0.830366 0.098011
vt 0.912764 0.263455
vt 0.989246 0.263455
vt 0.976193 0.347236
vt 0.176740 0.110278
vt 0.176740 0.001000
vt 0.237084 0.019759
vt 0.985773 0.344754
vt 0.985773 0.432388
vt 0.928384 0.413332
vt 0.514321 0.959017
vt 0.374663 0.959017
vt 0.449541 0.913633
vt 0.543436 0.920924
vt 0.574419 0.999000
vt 0.490622 0.999000
vt 0.214883 0.521677
vt 0.153493 0.615887
vt 0.072980 0.535374
vt 0.165609 0.430222
vt 0.001000 0.498574
vt 0.001000 0.355252
vt 0.359687 0.190740
vt 0.264268 0.001000
vt 0.387851 0.001000
vt 0.120046 0.918264
vt 0.001000 0.964856
vt 0.001000 0.879621
vt 0.498960 0.453317
vt 0.588700 0.597625
vt 0.417448 0.534829

# vertex normals
vn -0.133033 0.670958 -0.729464
vn -0.070859 -0.845464 -0.529311
vn -0.118287 -0.911159 -0.394712
vn 0.033952 -0.469081 -0.882502
vn 0.226047 -0.934990 -0.273307
vn 0.394503 0.705167 0.589157
vn -0.061368 -0.997812 -0.024590
vn -0.139719 0.590448 -0.794890
vn -0.088321 0.996092 0.000776
vn -0.173015 0.852947 0.492491
vn -0.049924 0.996665 -0.064548
vn 0.290839 0.639705 0.711470
vn -0.292574 -0.783011 0.548903
vn 0.273424 -0.710751 -0.648130
vn 0.496926 0.271425 0.824253
vn -0.088994 0.926195 0.366391
vn -0.086090 -0.996179 -0.014721
vn -0.235850 0.333908 0.912623
vn 0.039279 -0.968370 0.246406
vn -0.029686 -0.555551 -0.830952
vn 0.436588 0.805283 0.401136
vn 0.347720 0.580691 -0.736131
vn -0.400074 -0.885503 -0.236272
vn 0.402489 0.853089 -0.332027
vn -0.464155 0.517932 -0.718544
vn -0.501955 0.654295 -0.565632
vn -0.501955 0.654295 -0.565631
vn -0.565363 0.089175 -0.820008
vn 0.691347 -0.096780 0.716012
vn 0.462020 0.884814 0.060350
vn -0.229211 0.581289 -0.780746
vn 0.451752 0.168511 0.876085
vn 0.321292 -0.945583 0.051416
vn 0.116771 0.983164 0.140545
vn -0.463887 0.149114 -0.873255
vn -0.335604 0.932762 0.131625
vn 0.547273 -0.354358 -0.758236
vn 0.434000 0.228525 -0.871447
vn 0.368887 0.728768 0.576905
vn 0.249554 -0.825734 0.505852
vn -0.420823 -0.848055 -0.322040
vn 0.583159 0.484433 0.652112
vn -0.341014 0.927253 -0.154631
vn -0.044194 -0.998977 0.009537
vn -0.415515 0.723686 0.551023
vn 0.585468 0.519359 0.622490
vn 0.689918 0.723257 0.030198
vn -0.473627 -0.880447 -0.022156
vn -0.473628 -0.880446 -0.022156
vn 0.590094 -0.803385 0.079757
vn 0.590094 -0.803386 0.079757
vn 0.509959 -0.766515 -0.390380
vn -0.129622 0.865649 0.483581
vn 0.649614 -0.091903 -0.754689
vn 0.649615 -0.091903 -0.754689
vn -0.519573 0.167368 -0.837874
vn -0.488942 -0.852701 0.183945
vn -0.406856 -0.796753 0.446825
vn -0.627046 -0.199580 0.752981
vn 0.543355 0.394542 -0.741014
vn -0.580633 0.218286 0.784358
vn 0.946937 -0.094045 0.307352
vn -0.584567 0.811138 0.018370
vn -0.584567 0.811137 0.018370
vn -0.331309 0.881306 0.336948
vn -0.669843 -0.140268 0.729133
vn 0.908292 0.415793 -0.046065
vn 0.816728 0.106143 -0.567177
vn 0.786482 -0.609838 -0.097692
vn -0.512616 0.852179 -0.104958
vn 0.047966 0.945790 0.321217
vn 0.022385 -0.959789 -0.279830
vn 0.612538 -0.645749 0.455856
vn 0.274356 0.041302 0.960741
vn 0.598542 -0.796385 -0.086714
vn -0.463915 -0.344155 0.816296
vn 0.057699 -0.996490 -0.060658
vn 0.057699 -0.996489 -0.060658
vn -0.723605 -0.672840 -0.153890
vn 0.803826 0.559470 -0.202133
vn 0.645991 0.738044 0.194902
vn -0.625742 0.205186 0.752560
vn -0.786581 0.479191 0.389445
vn 0.797313 0.603091 0.023959
vn -0.080927 -0.990867 0.107859
vn 0.391733 -0.904526 0.168455
vn -0.112804 -0.833537 -0.540825
vn 0.315636 0.040634 0.948010
vn 0.341556 -0.935550 0.089923
vn 0.938015 -0.266691 0.221367
vn 0.938015 -0.266691 0.221368
vn 0.303625 -0.950556 0.065238
vn -0.856095 0.512962 -0.063015
vn -0.727963 0.666770 -0.159650
vn 0.812599 -0.486820 -0.320450
vn 0.566751 -0.735625 -0.371010
vn 0.566751 -0.735625 -0.371011
vn 0.989397 0.144686 0.012633
vn -0.578530 -0.283261 -0.764897
vn -0.822440 -0.568440 -0.021641
vn 0.973684 0.220148 -0.058947
vn -0.281607 -0.952142 -0.118841
vn 0.813483 0.543236 -0.207703
vn -0.793370 -0.200010 0.574943
vn 0.707805 -0.450199 0.544365
vn -0.973283 0.227609 0.030243
vn 0.984537 -0.021729 0.173826
vn 0.272359 -0.948779 0.160122
vn 0.932153 -0.340775 0.122323
vn -0.908457 0.412951 0.064625
vn -0.897590 -0.196166 -0.394780
vn -0.620040 -0.780706 -0.077775
vn 0.879879 0.092106 -0.466186
vn -0.880192 0.460215 -0.116035

# Mesh
g BushN3:SculptMesh_1_geom
usemtl BushN3________0
f 1/1/1 2/2/1 3/3/1
f 4/4/2 5/5/2 6/6/2
f 7/7/3 8/8/3 9/9/3
f 10/10/4 2/11/4 1/12/4
f 11/13/5 12/14/5 8/15/5
f 13/16/6 14/17/6 15/18/6
f 9/19/7 8/20/7 16/21/7
f 10/22/8 6/23/8 17/24/8
f 18/25/9 3/26/9 19/27/9
f 18/28/10 20/29/10 15/30/10
f 21/31/11 22/32/11 23/33/11
f 24/34/12 15/35/12 14/36/12
f 25/37/13 16/38/13 26/39/13
f 6/40/14 27/41/14 4/42/14
f 28/43/15 29/44/15 13/45/15
f 30/46/16 21/47/16 18/48/16
f 12/49/17 11/50/17 31/51/17
f 20/52/18 32/53/18 15/54/18
f 5/55/19 4/56/19 11/57/19
f 17/58/20 2/59/20 10/60/20
f 22/61/21 30/62/21 33/63/21
f 1/64/22 23/65/22 34/66/22
f 5/67/23 35/68/23 36/69/23
f 22/70/24 34/71/24 23/72/24
f 3/73/25 2/74/25 37/75/25
f 3/76/26 37/77/27 19/78/26
f 37/79/28 2/80/28 17/81/28
f 24/82/29 14/83/29 38/84/29
f 38/85/30 14/86/30 29/87/30
f 3/88/31 23/89/31 1/90/31
f 13/91/32 25/92/32 28/93/32
f 39/94/33 28/95/33 8/96/33
f 24/97/34 40/98/34 15/99/34
f 17/100/35 6/101/35 41/102/35
f 18/103/36 19/104/36 42/105/36
f 1/106/37 43/107/37 10/108/37
f 6/109/38 10/110/38 27/111/38
f 29/112/39 14/113/39 13/114/39
f 28/115/40 25/116/40 26/117/40
f 5/118/41 36/119/41 41/120/41
f 33/121/42 30/122/42 40/123/42
f 21/124/43 23/125/43 3/126/43
f 8/127/44 26/128/44 16/129/44
f 15/130/45 32/131/45 13/132/45
f 15/133/46 40/134/46 30/135/46
f 34/136/47 22/137/47 33/138/47
f 7/139/48 11/140/49 8/141/49
f 12/142/50 31/143/51 44/144/51
f 31/145/52 4/146/52 27/147/52
f 30/148/53 18/149/53 15/150/53
f 34/151/54 43/152/55 1/153/55
f 17/154/56 41/155/56 37/156/56
f 45/157/57 35/158/57 46/159/57
f 46/160/58 47/161/58 45/162/58
f 25/163/59 13/164/59 16/165/59
f 10/166/60 43/167/60 27/168/60
f 18/169/61 42/170/61 48/171/61
f 39/172/62 29/173/62 28/174/62
f 18/175/63 21/176/64 3/177/64
f 18/178/65 49/179/65 20/180/65
f 32/181/66 16/182/66 13/183/66
f 29/184/67 50/185/67 38/186/67
f 27/187/68 43/188/68 51/189/68
f 44/190/69 31/191/69 51/192/69
f 18/193/70 48/194/70 49/195/70
f 30/196/71 22/197/71 21/198/71
f 7/199/72 9/200/72 46/201/72
f 50/202/73 12/203/73 44/204/73
f 38/205/74 50/206/74 24/207/74
f 44/208/75 51/209/75 52/210/75
f 47/211/76 32/212/76 45/213/76
f 46/214/77 11/215/77 7/216/78
f 53/217/79 36/218/79 45/219/79
f 40/220/80 54/221/80 43/222/80
f 55/223/81 40/224/81 24/225/81
f 32/226/82 20/227/82 45/228/82
f 49/229/83 45/230/83 20/231/83
f 40/232/84 55/233/84 54/234/84
f 11/235/85 4/236/85 31/237/85
f 11/238/86 46/239/86 35/240/86
f 6/241/87 5/242/87 41/243/87
f 24/244/88 50/245/88 55/246/88
f 11/247/89 35/248/89 5/249/89
f 52/250/90 54/251/91 44/252/91
f 8/253/92 28/254/92 26/255/92
f 45/256/93 49/257/93 48/258/93
f 37/259/94 42/260/94 19/261/94
f 50/262/95 39/263/95 12/264/95
f 31/265/96 27/266/97 51/267/96
f 43/268/98 34/269/98 33/270/98
f 37/271/99 36/272/99 53/273/99
f 47/274/100 46/275/100 16/276/100
f 43/277/101 33/278/101 40/279/101
f 46/280/102 9/281/102 16/282/102
f 43/283/103 54/284/103 52/285/103
f 16/286/104 32/287/104 47/288/104
f 50/289/105 44/290/105 55/291/105
f 37/292/106 48/293/106 42/294/106
f 29/295/107 39/296/107 50/297/107
f 39/298/108 8/299/108 12/300/108
f 54/301/109 55/302/109 44/303/109
f 53/304/110 48/305/110 37/306/110
f 37/307/111 41/308/111 36/309/111
f 45/310/112 36/311/112 35/312/112
f 52/313/113 51/314/113 43/315/113
f 53/316/114 45/317/114 48/318/114
